M48
;GenerationSoftware,Autodesk,EAGLE,9.6.2*%
;CreationDate,2022-10-25T20:08:20Z*%
FMAT,2
ICI,OFF
METRIC,TZ,000.000
T3C0.900
T2C0.914
T1C1.016
%
G90
M71
T1
X27940Y66040
X30480Y66040
X33020Y66040
X35560Y66040
X38100Y66040
X40640Y66040
X43180Y66040
X45720Y66040
X27940Y90170
X30480Y90170
X33020Y90170
X35560Y90170
X38100Y90170
X40640Y90170
X43180Y90170
X45720Y90170
X7620Y76200
X5080Y76200
X2540Y76200
X8890Y69850
X10160Y76200
X15240Y76200
X17780Y76200
X20320Y76200
X3810Y69850
X6350Y69850
T2
X10160Y97790
X10160Y95250
X12700Y97790
X12700Y95250
X15240Y97790
X15240Y95250
X17780Y97790
X17780Y95250
X20320Y97790
X20320Y95250
X22860Y97790
X22860Y95250
X25400Y97790
X25400Y95250
X27940Y97790
X27940Y95250
X30480Y97790
X30480Y95250
X33020Y97790
X33020Y95250
X35560Y97790
X35560Y95250
X38100Y97790
X38100Y95250
X40640Y97790
X40640Y95250
X43180Y97790
X43180Y95250
X45720Y97790
X45720Y95250
X48260Y97790
X48260Y95250
X50800Y97790
X50800Y95250
X2540Y97790
X2540Y95250
X5080Y97790
X5080Y95250
X7620Y97790
X7620Y95250
T3
X17780Y80010
X20320Y80010
X17780Y87630
X15240Y87630
X12700Y87630
X10160Y87630
X7620Y87630
X5080Y87630
X2540Y87630
X15240Y80010
X8890Y91440
X21590Y69850
X13970Y69850
X2540Y80010
X5080Y80010
X7620Y80010
X10160Y80010
X12700Y80010
X16510Y91440
X20320Y87630
M30