G04 EAGLE Gerber RS-274X export*
G75*
%MOMM*%
%FSLAX34Y34*%
%LPD*%
%INTop Copper*%
%IPPOS*%
%AMOC8*
5,1,8,0,0,1.08239X$1,22.5*%
G01*
%ADD10C,0.130000*%
%ADD11C,0.152400*%
%ADD12C,1.524000*%
%ADD13C,1.879600*%
%ADD14C,1.422400*%
%ADD15P,1.539592X8X22.500000*%
%ADD16R,1.408000X1.408000*%
%ADD17C,1.408000*%


D10*
X0Y1000000D02*
X-962Y1159195D01*
X545138Y1162495D02*
X546100Y1003300D01*
X544606Y1142991D02*
X-194Y1139699D01*
X25136Y1143044D01*
X25175Y1136660D01*
X-194Y1139699D01*
X25148Y1141152D01*
X25163Y1138552D02*
X-194Y1139699D01*
X25140Y1142452D01*
X25171Y1137252D02*
X-194Y1139699D01*
X519237Y1146030D02*
X544606Y1142991D01*
X519237Y1146030D02*
X519276Y1139645D01*
X544606Y1142991D01*
X519248Y1144138D01*
X519264Y1141538D02*
X544606Y1142991D01*
X519241Y1145438D01*
X519272Y1140238D02*
X544606Y1142991D01*
D11*
X246526Y1147703D02*
X241108Y1147665D01*
X246526Y1147703D02*
X246644Y1147706D01*
X246762Y1147712D01*
X246880Y1147723D01*
X246997Y1147737D01*
X247114Y1147755D01*
X247230Y1147777D01*
X247346Y1147803D01*
X247460Y1147833D01*
X247574Y1147866D01*
X247686Y1147903D01*
X247797Y1147943D01*
X247907Y1147988D01*
X248015Y1148035D01*
X248121Y1148087D01*
X248226Y1148141D01*
X248329Y1148200D01*
X248430Y1148261D01*
X248529Y1148326D01*
X248625Y1148394D01*
X248720Y1148465D01*
X248812Y1148539D01*
X248901Y1148616D01*
X248988Y1148696D01*
X249073Y1148779D01*
X249154Y1148864D01*
X249233Y1148952D01*
X249309Y1149043D01*
X249382Y1149136D01*
X249452Y1149232D01*
X249518Y1149329D01*
X249582Y1149429D01*
X249642Y1149531D01*
X249698Y1149635D01*
X249752Y1149740D01*
X249801Y1149847D01*
X249848Y1149956D01*
X249890Y1150066D01*
X249929Y1150178D01*
X249965Y1150291D01*
X249996Y1150405D01*
X250024Y1150519D01*
X250048Y1150635D01*
X250069Y1150752D01*
X250085Y1150869D01*
X250098Y1150986D01*
X250107Y1151104D01*
X250112Y1151222D01*
X250113Y1151340D01*
X250101Y1153146D01*
X250100Y1153146D02*
X250097Y1153264D01*
X250091Y1153382D01*
X250080Y1153500D01*
X250066Y1153617D01*
X250048Y1153734D01*
X250026Y1153850D01*
X250000Y1153966D01*
X249970Y1154080D01*
X249937Y1154194D01*
X249900Y1154306D01*
X249860Y1154417D01*
X249815Y1154527D01*
X249768Y1154635D01*
X249716Y1154741D01*
X249662Y1154846D01*
X249603Y1154949D01*
X249542Y1155050D01*
X249477Y1155149D01*
X249409Y1155245D01*
X249338Y1155340D01*
X249264Y1155432D01*
X249187Y1155521D01*
X249107Y1155608D01*
X249024Y1155693D01*
X248939Y1155774D01*
X248851Y1155853D01*
X248760Y1155929D01*
X248667Y1156002D01*
X248571Y1156072D01*
X248474Y1156138D01*
X248374Y1156202D01*
X248272Y1156262D01*
X248168Y1156318D01*
X248063Y1156372D01*
X247956Y1156421D01*
X247847Y1156468D01*
X247737Y1156510D01*
X247625Y1156549D01*
X247512Y1156585D01*
X247398Y1156616D01*
X247284Y1156644D01*
X247168Y1156668D01*
X247051Y1156689D01*
X246934Y1156705D01*
X246817Y1156718D01*
X246699Y1156727D01*
X246581Y1156732D01*
X246463Y1156733D01*
X241045Y1156696D01*
X240994Y1163920D01*
X250025Y1163983D01*
X260237Y1164055D02*
X256713Y1151386D01*
X265744Y1151449D01*
X263010Y1155043D02*
X263060Y1147818D01*
X271744Y1147879D02*
X271738Y1148782D01*
X272641Y1148788D01*
X272647Y1147885D01*
X271744Y1147879D01*
X278558Y1156957D02*
X283977Y1156995D01*
X284095Y1156994D01*
X284213Y1156989D01*
X284331Y1156980D01*
X284448Y1156967D01*
X284565Y1156951D01*
X284682Y1156930D01*
X284798Y1156906D01*
X284912Y1156878D01*
X285026Y1156847D01*
X285139Y1156811D01*
X285251Y1156772D01*
X285361Y1156730D01*
X285470Y1156683D01*
X285577Y1156634D01*
X285682Y1156580D01*
X285786Y1156524D01*
X285888Y1156464D01*
X285988Y1156400D01*
X286085Y1156334D01*
X286181Y1156264D01*
X286274Y1156191D01*
X286365Y1156115D01*
X286453Y1156036D01*
X286538Y1155955D01*
X286621Y1155870D01*
X286701Y1155783D01*
X286778Y1155694D01*
X286852Y1155602D01*
X286923Y1155507D01*
X286991Y1155411D01*
X287056Y1155312D01*
X287117Y1155211D01*
X287176Y1155108D01*
X287230Y1155003D01*
X287282Y1154897D01*
X287329Y1154789D01*
X287374Y1154679D01*
X287414Y1154568D01*
X287451Y1154456D01*
X287484Y1154342D01*
X287514Y1154228D01*
X287540Y1154112D01*
X287562Y1153996D01*
X287580Y1153879D01*
X287594Y1153762D01*
X287605Y1153644D01*
X287611Y1153526D01*
X287614Y1153408D01*
X287615Y1153408D02*
X287621Y1152505D01*
X287621Y1152506D02*
X287620Y1152373D01*
X287615Y1152240D01*
X287606Y1152108D01*
X287593Y1151976D01*
X287577Y1151845D01*
X287557Y1151714D01*
X287532Y1151583D01*
X287504Y1151454D01*
X287472Y1151325D01*
X287437Y1151197D01*
X287397Y1151071D01*
X287354Y1150945D01*
X287308Y1150821D01*
X287257Y1150699D01*
X287203Y1150577D01*
X287146Y1150458D01*
X287085Y1150340D01*
X287021Y1150224D01*
X286953Y1150110D01*
X286882Y1149998D01*
X286808Y1149888D01*
X286730Y1149781D01*
X286649Y1149676D01*
X286566Y1149573D01*
X286479Y1149472D01*
X286390Y1149375D01*
X286297Y1149280D01*
X286202Y1149187D01*
X286104Y1149098D01*
X286004Y1149011D01*
X285901Y1148928D01*
X285796Y1148847D01*
X285688Y1148770D01*
X285578Y1148695D01*
X285466Y1148624D01*
X285352Y1148557D01*
X285236Y1148492D01*
X285118Y1148432D01*
X284999Y1148374D01*
X284878Y1148320D01*
X284755Y1148270D01*
X284631Y1148224D01*
X284505Y1148181D01*
X284379Y1148141D01*
X284251Y1148106D01*
X284122Y1148074D01*
X283993Y1148046D01*
X283862Y1148022D01*
X283731Y1148002D01*
X283600Y1147985D01*
X283468Y1147973D01*
X283335Y1147964D01*
X283203Y1147959D01*
X283070Y1147958D01*
X282938Y1147961D01*
X282805Y1147968D01*
X282673Y1147979D01*
X282541Y1147993D01*
X282410Y1148012D01*
X282279Y1148034D01*
X282149Y1148060D01*
X282020Y1148090D01*
X281892Y1148124D01*
X281765Y1148161D01*
X281639Y1148203D01*
X281514Y1148248D01*
X281391Y1148296D01*
X281269Y1148348D01*
X281148Y1148404D01*
X281030Y1148463D01*
X280913Y1148526D01*
X280798Y1148592D01*
X280685Y1148661D01*
X280574Y1148734D01*
X280465Y1148810D01*
X280359Y1148889D01*
X280255Y1148971D01*
X280153Y1149056D01*
X280054Y1149144D01*
X279958Y1149235D01*
X279864Y1149329D01*
X279773Y1149426D01*
X279685Y1149525D01*
X279600Y1149626D01*
X279518Y1149731D01*
X279439Y1149837D01*
X279363Y1149946D01*
X279290Y1150057D01*
X279221Y1150170D01*
X279155Y1150285D01*
X279093Y1150402D01*
X279033Y1150520D01*
X278978Y1150641D01*
X278926Y1150763D01*
X278877Y1150886D01*
X278833Y1151011D01*
X278791Y1151137D01*
X278754Y1151264D01*
X278720Y1151392D01*
X278691Y1151522D01*
X278665Y1151652D01*
X278642Y1151782D01*
X278624Y1151914D01*
X278609Y1152045D01*
X278599Y1152178D01*
X278592Y1152310D01*
X278589Y1152442D01*
X278590Y1152442D02*
X278558Y1156957D01*
X278558Y1156958D02*
X278559Y1157135D01*
X278564Y1157312D01*
X278574Y1157489D01*
X278588Y1157666D01*
X278606Y1157842D01*
X278629Y1158018D01*
X278656Y1158193D01*
X278687Y1158368D01*
X278723Y1158542D01*
X278762Y1158715D01*
X278806Y1158886D01*
X278855Y1159057D01*
X278907Y1159226D01*
X278964Y1159394D01*
X279024Y1159561D01*
X279089Y1159726D01*
X279158Y1159890D01*
X279230Y1160051D01*
X279307Y1160211D01*
X279387Y1160369D01*
X279472Y1160525D01*
X279560Y1160679D01*
X279652Y1160831D01*
X279748Y1160980D01*
X279847Y1161127D01*
X279950Y1161271D01*
X280056Y1161413D01*
X280166Y1161552D01*
X280279Y1161689D01*
X280396Y1161823D01*
X280516Y1161953D01*
X280639Y1162081D01*
X280765Y1162206D01*
X280894Y1162327D01*
X281026Y1162446D01*
X281161Y1162561D01*
X281298Y1162673D01*
X281439Y1162781D01*
X281582Y1162886D01*
X281727Y1162987D01*
X281875Y1163085D01*
X282025Y1163179D01*
X282178Y1163269D01*
X282333Y1163356D01*
X282490Y1163439D01*
X282648Y1163518D01*
X282809Y1163593D01*
X282972Y1163664D01*
X283136Y1163731D01*
X283301Y1163793D01*
X283469Y1163852D01*
X283637Y1163907D01*
X283807Y1163958D01*
X283979Y1164004D01*
X284151Y1164046D01*
X284324Y1164084D01*
X284498Y1164118D01*
X284673Y1164147D01*
X284848Y1164172D01*
X285025Y1164193D01*
X285201Y1164210D01*
X285378Y1164222D01*
X285555Y1164229D01*
X285732Y1164233D01*
X294164Y1160679D02*
X298654Y1164323D01*
X298768Y1148067D01*
X303283Y1148099D02*
X294252Y1148036D01*
D10*
X0Y1000000D02*
X-121100Y1000000D01*
X-121100Y635000D02*
X0Y635000D01*
X-101600Y635650D02*
X-101600Y999350D01*
X-104792Y974000D01*
X-98408Y974000D01*
X-101600Y999350D01*
X-102900Y974000D01*
X-100300Y974000D02*
X-101600Y999350D01*
X-104200Y974000D01*
X-99000Y974000D02*
X-101600Y999350D01*
X-104792Y661000D02*
X-101600Y635650D01*
X-104792Y661000D02*
X-98408Y661000D01*
X-101600Y635650D01*
X-102900Y661000D01*
X-100300Y661000D02*
X-101600Y635650D01*
X-104200Y661000D01*
X-99000Y661000D02*
X-101600Y635650D01*
D11*
X-108107Y786441D02*
X-108107Y790957D01*
X-108109Y791090D01*
X-108115Y791222D01*
X-108125Y791354D01*
X-108138Y791486D01*
X-108156Y791618D01*
X-108177Y791748D01*
X-108202Y791879D01*
X-108231Y792008D01*
X-108264Y792136D01*
X-108300Y792264D01*
X-108340Y792390D01*
X-108384Y792515D01*
X-108432Y792639D01*
X-108483Y792761D01*
X-108538Y792882D01*
X-108596Y793001D01*
X-108658Y793119D01*
X-108723Y793234D01*
X-108792Y793348D01*
X-108863Y793459D01*
X-108939Y793568D01*
X-109017Y793675D01*
X-109098Y793780D01*
X-109183Y793882D01*
X-109270Y793982D01*
X-109360Y794079D01*
X-109453Y794174D01*
X-109549Y794265D01*
X-109647Y794354D01*
X-109748Y794440D01*
X-109852Y794523D01*
X-109958Y794603D01*
X-110066Y794679D01*
X-110176Y794753D01*
X-110289Y794823D01*
X-110403Y794890D01*
X-110520Y794953D01*
X-110638Y795013D01*
X-110758Y795070D01*
X-110880Y795123D01*
X-111003Y795172D01*
X-111127Y795218D01*
X-111253Y795260D01*
X-111380Y795298D01*
X-111508Y795333D01*
X-111637Y795364D01*
X-111766Y795391D01*
X-111897Y795414D01*
X-112028Y795434D01*
X-112160Y795449D01*
X-112292Y795461D01*
X-112424Y795469D01*
X-112557Y795473D01*
X-112689Y795473D01*
X-112822Y795469D01*
X-112954Y795461D01*
X-113086Y795449D01*
X-113218Y795434D01*
X-113349Y795414D01*
X-113480Y795391D01*
X-113609Y795364D01*
X-113738Y795333D01*
X-113866Y795298D01*
X-113993Y795260D01*
X-114119Y795218D01*
X-114243Y795172D01*
X-114366Y795123D01*
X-114488Y795070D01*
X-114608Y795013D01*
X-114726Y794953D01*
X-114843Y794890D01*
X-114957Y794823D01*
X-115070Y794753D01*
X-115180Y794679D01*
X-115288Y794603D01*
X-115394Y794523D01*
X-115498Y794440D01*
X-115599Y794354D01*
X-115697Y794265D01*
X-115793Y794174D01*
X-115886Y794079D01*
X-115976Y793982D01*
X-116063Y793882D01*
X-116148Y793780D01*
X-116229Y793675D01*
X-116307Y793568D01*
X-116383Y793459D01*
X-116454Y793348D01*
X-116523Y793234D01*
X-116588Y793119D01*
X-116650Y793001D01*
X-116708Y792882D01*
X-116763Y792761D01*
X-116814Y792639D01*
X-116862Y792515D01*
X-116906Y792390D01*
X-116946Y792264D01*
X-116982Y792136D01*
X-117015Y792008D01*
X-117044Y791879D01*
X-117069Y791748D01*
X-117090Y791618D01*
X-117108Y791486D01*
X-117121Y791354D01*
X-117131Y791222D01*
X-117137Y791090D01*
X-117139Y790957D01*
X-124363Y791860D02*
X-124363Y786441D01*
X-124363Y791860D02*
X-124361Y791979D01*
X-124355Y792099D01*
X-124345Y792218D01*
X-124331Y792336D01*
X-124314Y792455D01*
X-124292Y792572D01*
X-124267Y792689D01*
X-124237Y792804D01*
X-124204Y792919D01*
X-124167Y793033D01*
X-124127Y793145D01*
X-124082Y793256D01*
X-124034Y793365D01*
X-123983Y793473D01*
X-123928Y793579D01*
X-123869Y793683D01*
X-123807Y793785D01*
X-123742Y793885D01*
X-123673Y793983D01*
X-123601Y794079D01*
X-123526Y794172D01*
X-123449Y794262D01*
X-123368Y794350D01*
X-123284Y794435D01*
X-123197Y794517D01*
X-123108Y794597D01*
X-123016Y794673D01*
X-122922Y794747D01*
X-122825Y794817D01*
X-122727Y794884D01*
X-122626Y794948D01*
X-122522Y795008D01*
X-122417Y795065D01*
X-122310Y795118D01*
X-122202Y795168D01*
X-122092Y795214D01*
X-121980Y795256D01*
X-121867Y795295D01*
X-121753Y795330D01*
X-121638Y795361D01*
X-121521Y795389D01*
X-121404Y795412D01*
X-121287Y795432D01*
X-121168Y795448D01*
X-121049Y795460D01*
X-120930Y795468D01*
X-120811Y795472D01*
X-120691Y795472D01*
X-120572Y795468D01*
X-120453Y795460D01*
X-120334Y795448D01*
X-120215Y795432D01*
X-120098Y795412D01*
X-119981Y795389D01*
X-119864Y795361D01*
X-119749Y795330D01*
X-119635Y795295D01*
X-119522Y795256D01*
X-119410Y795214D01*
X-119300Y795168D01*
X-119192Y795118D01*
X-119085Y795065D01*
X-118980Y795008D01*
X-118876Y794948D01*
X-118775Y794884D01*
X-118677Y794817D01*
X-118580Y794747D01*
X-118486Y794673D01*
X-118394Y794597D01*
X-118305Y794517D01*
X-118218Y794435D01*
X-118134Y794350D01*
X-118053Y794262D01*
X-117976Y794172D01*
X-117901Y794079D01*
X-117829Y793983D01*
X-117760Y793885D01*
X-117695Y793785D01*
X-117633Y793683D01*
X-117574Y793579D01*
X-117519Y793473D01*
X-117468Y793365D01*
X-117420Y793256D01*
X-117375Y793145D01*
X-117335Y793033D01*
X-117298Y792919D01*
X-117265Y792804D01*
X-117235Y792689D01*
X-117210Y792572D01*
X-117188Y792455D01*
X-117171Y792336D01*
X-117157Y792218D01*
X-117147Y792099D01*
X-117141Y791979D01*
X-117139Y791860D01*
X-117138Y791860D02*
X-117138Y788248D01*
X-117138Y802073D02*
X-117138Y807491D01*
X-117136Y807609D01*
X-117130Y807727D01*
X-117121Y807845D01*
X-117107Y807962D01*
X-117090Y808079D01*
X-117069Y808196D01*
X-117044Y808311D01*
X-117015Y808426D01*
X-116982Y808540D01*
X-116946Y808652D01*
X-116906Y808763D01*
X-116863Y808873D01*
X-116816Y808982D01*
X-116766Y809089D01*
X-116711Y809194D01*
X-116654Y809297D01*
X-116593Y809398D01*
X-116529Y809498D01*
X-116462Y809595D01*
X-116392Y809690D01*
X-116318Y809782D01*
X-116242Y809873D01*
X-116162Y809960D01*
X-116080Y810045D01*
X-115995Y810127D01*
X-115908Y810207D01*
X-115817Y810283D01*
X-115725Y810357D01*
X-115630Y810427D01*
X-115533Y810494D01*
X-115433Y810558D01*
X-115332Y810619D01*
X-115229Y810676D01*
X-115124Y810731D01*
X-115017Y810781D01*
X-114908Y810828D01*
X-114798Y810871D01*
X-114687Y810911D01*
X-114575Y810947D01*
X-114461Y810980D01*
X-114346Y811009D01*
X-114231Y811034D01*
X-114114Y811055D01*
X-113997Y811072D01*
X-113880Y811086D01*
X-113762Y811095D01*
X-113644Y811101D01*
X-113526Y811103D01*
X-113526Y811104D02*
X-112623Y811104D01*
X-112490Y811102D01*
X-112358Y811096D01*
X-112226Y811086D01*
X-112094Y811073D01*
X-111962Y811055D01*
X-111832Y811034D01*
X-111701Y811009D01*
X-111572Y810980D01*
X-111444Y810947D01*
X-111316Y810911D01*
X-111190Y810871D01*
X-111065Y810827D01*
X-110941Y810779D01*
X-110819Y810728D01*
X-110698Y810673D01*
X-110579Y810615D01*
X-110461Y810553D01*
X-110346Y810488D01*
X-110232Y810419D01*
X-110121Y810348D01*
X-110012Y810272D01*
X-109905Y810194D01*
X-109800Y810113D01*
X-109698Y810028D01*
X-109598Y809941D01*
X-109501Y809851D01*
X-109406Y809758D01*
X-109315Y809662D01*
X-109226Y809564D01*
X-109140Y809463D01*
X-109057Y809359D01*
X-108977Y809253D01*
X-108901Y809145D01*
X-108827Y809035D01*
X-108757Y808922D01*
X-108690Y808808D01*
X-108627Y808691D01*
X-108567Y808573D01*
X-108510Y808453D01*
X-108457Y808331D01*
X-108408Y808208D01*
X-108362Y808084D01*
X-108320Y807958D01*
X-108282Y807831D01*
X-108247Y807703D01*
X-108216Y807574D01*
X-108189Y807445D01*
X-108166Y807314D01*
X-108146Y807183D01*
X-108131Y807051D01*
X-108119Y806919D01*
X-108111Y806787D01*
X-108107Y806654D01*
X-108107Y806522D01*
X-108111Y806389D01*
X-108119Y806257D01*
X-108131Y806125D01*
X-108146Y805993D01*
X-108166Y805862D01*
X-108189Y805731D01*
X-108216Y805602D01*
X-108247Y805473D01*
X-108282Y805345D01*
X-108320Y805218D01*
X-108362Y805092D01*
X-108408Y804968D01*
X-108457Y804845D01*
X-108510Y804723D01*
X-108567Y804603D01*
X-108627Y804485D01*
X-108690Y804368D01*
X-108757Y804254D01*
X-108827Y804141D01*
X-108901Y804031D01*
X-108977Y803923D01*
X-109057Y803817D01*
X-109140Y803713D01*
X-109226Y803612D01*
X-109315Y803514D01*
X-109406Y803418D01*
X-109501Y803325D01*
X-109598Y803235D01*
X-109698Y803148D01*
X-109800Y803063D01*
X-109905Y802982D01*
X-110012Y802904D01*
X-110121Y802828D01*
X-110232Y802757D01*
X-110346Y802688D01*
X-110461Y802623D01*
X-110579Y802561D01*
X-110698Y802503D01*
X-110819Y802448D01*
X-110941Y802397D01*
X-111065Y802349D01*
X-111190Y802305D01*
X-111316Y802265D01*
X-111444Y802229D01*
X-111572Y802196D01*
X-111701Y802167D01*
X-111832Y802142D01*
X-111962Y802121D01*
X-112094Y802103D01*
X-112226Y802090D01*
X-112358Y802080D01*
X-112490Y802074D01*
X-112623Y802072D01*
X-112623Y802073D02*
X-117138Y802073D01*
X-117138Y802072D02*
X-117313Y802074D01*
X-117487Y802080D01*
X-117661Y802091D01*
X-117835Y802106D01*
X-118009Y802125D01*
X-118182Y802148D01*
X-118354Y802175D01*
X-118526Y802207D01*
X-118697Y802242D01*
X-118867Y802282D01*
X-119036Y802326D01*
X-119204Y802374D01*
X-119371Y802426D01*
X-119536Y802482D01*
X-119700Y802542D01*
X-119863Y802605D01*
X-120023Y802673D01*
X-120183Y802745D01*
X-120340Y802820D01*
X-120496Y802900D01*
X-120649Y802983D01*
X-120801Y803069D01*
X-120950Y803160D01*
X-121097Y803254D01*
X-121242Y803351D01*
X-121385Y803452D01*
X-121525Y803556D01*
X-121662Y803664D01*
X-121797Y803775D01*
X-121929Y803889D01*
X-122058Y804006D01*
X-122185Y804127D01*
X-122308Y804250D01*
X-122429Y804377D01*
X-122546Y804506D01*
X-122660Y804638D01*
X-122771Y804773D01*
X-122879Y804910D01*
X-122983Y805050D01*
X-123084Y805193D01*
X-123181Y805338D01*
X-123275Y805485D01*
X-123366Y805634D01*
X-123452Y805786D01*
X-123535Y805939D01*
X-123615Y806095D01*
X-123690Y806252D01*
X-123762Y806412D01*
X-123830Y806572D01*
X-123893Y806735D01*
X-123953Y806899D01*
X-124009Y807064D01*
X-124061Y807231D01*
X-124109Y807399D01*
X-124153Y807568D01*
X-124193Y807738D01*
X-124228Y807909D01*
X-124260Y808081D01*
X-124287Y808253D01*
X-124310Y808426D01*
X-124329Y808600D01*
X-124344Y808774D01*
X-124355Y808948D01*
X-124361Y809122D01*
X-124363Y809297D01*
X-109010Y817078D02*
X-108107Y817078D01*
X-109010Y817078D02*
X-109010Y817981D01*
X-108107Y817981D01*
X-108107Y817078D01*
X-108107Y823956D02*
X-108107Y829375D01*
X-108109Y829493D01*
X-108115Y829611D01*
X-108124Y829729D01*
X-108138Y829846D01*
X-108155Y829963D01*
X-108176Y830080D01*
X-108201Y830195D01*
X-108230Y830310D01*
X-108263Y830424D01*
X-108299Y830536D01*
X-108339Y830647D01*
X-108382Y830757D01*
X-108429Y830866D01*
X-108479Y830973D01*
X-108534Y831078D01*
X-108591Y831181D01*
X-108652Y831282D01*
X-108716Y831382D01*
X-108783Y831479D01*
X-108853Y831574D01*
X-108927Y831666D01*
X-109003Y831757D01*
X-109083Y831844D01*
X-109165Y831929D01*
X-109250Y832011D01*
X-109337Y832091D01*
X-109428Y832167D01*
X-109520Y832241D01*
X-109615Y832311D01*
X-109712Y832378D01*
X-109812Y832442D01*
X-109913Y832503D01*
X-110016Y832560D01*
X-110121Y832615D01*
X-110228Y832665D01*
X-110337Y832712D01*
X-110447Y832755D01*
X-110558Y832795D01*
X-110670Y832831D01*
X-110784Y832864D01*
X-110899Y832893D01*
X-111014Y832918D01*
X-111131Y832939D01*
X-111248Y832956D01*
X-111365Y832970D01*
X-111483Y832979D01*
X-111601Y832985D01*
X-111719Y832987D01*
X-113526Y832987D01*
X-113644Y832985D01*
X-113762Y832979D01*
X-113880Y832970D01*
X-113997Y832956D01*
X-114114Y832939D01*
X-114231Y832918D01*
X-114346Y832893D01*
X-114461Y832864D01*
X-114575Y832831D01*
X-114687Y832795D01*
X-114798Y832755D01*
X-114908Y832712D01*
X-115017Y832665D01*
X-115124Y832615D01*
X-115229Y832560D01*
X-115332Y832503D01*
X-115433Y832442D01*
X-115533Y832378D01*
X-115630Y832311D01*
X-115725Y832241D01*
X-115817Y832167D01*
X-115908Y832091D01*
X-115995Y832011D01*
X-116080Y831929D01*
X-116162Y831844D01*
X-116242Y831757D01*
X-116318Y831666D01*
X-116392Y831574D01*
X-116462Y831479D01*
X-116529Y831382D01*
X-116593Y831282D01*
X-116654Y831181D01*
X-116711Y831078D01*
X-116766Y830973D01*
X-116816Y830866D01*
X-116863Y830757D01*
X-116906Y830647D01*
X-116946Y830536D01*
X-116982Y830424D01*
X-117015Y830310D01*
X-117044Y830195D01*
X-117069Y830080D01*
X-117090Y829963D01*
X-117107Y829846D01*
X-117121Y829729D01*
X-117130Y829611D01*
X-117136Y829493D01*
X-117138Y829375D01*
X-117138Y823956D01*
X-124363Y823956D01*
X-124363Y832987D01*
X-122105Y840943D02*
X-121816Y840806D01*
X-121524Y840676D01*
X-121228Y840553D01*
X-120930Y840438D01*
X-120629Y840329D01*
X-120326Y840228D01*
X-120020Y840134D01*
X-119713Y840047D01*
X-119403Y839968D01*
X-119091Y839896D01*
X-118778Y839832D01*
X-118463Y839775D01*
X-118147Y839725D01*
X-117830Y839683D01*
X-117512Y839649D01*
X-117194Y839622D01*
X-116874Y839603D01*
X-116555Y839592D01*
X-116235Y839588D01*
X-122106Y840942D02*
X-122214Y840981D01*
X-122321Y841024D01*
X-122426Y841070D01*
X-122530Y841121D01*
X-122632Y841174D01*
X-122732Y841231D01*
X-122830Y841292D01*
X-122925Y841356D01*
X-123019Y841423D01*
X-123110Y841494D01*
X-123199Y841567D01*
X-123285Y841644D01*
X-123368Y841723D01*
X-123449Y841805D01*
X-123527Y841890D01*
X-123601Y841978D01*
X-123673Y842068D01*
X-123741Y842160D01*
X-123807Y842255D01*
X-123869Y842352D01*
X-123927Y842451D01*
X-123983Y842553D01*
X-124034Y842655D01*
X-124082Y842760D01*
X-124127Y842866D01*
X-124168Y842974D01*
X-124205Y843083D01*
X-124238Y843193D01*
X-124267Y843305D01*
X-124293Y843417D01*
X-124315Y843530D01*
X-124332Y843644D01*
X-124346Y843758D01*
X-124356Y843873D01*
X-124362Y843988D01*
X-124364Y844103D01*
X-124363Y844103D02*
X-124361Y844218D01*
X-124355Y844333D01*
X-124345Y844448D01*
X-124331Y844562D01*
X-124314Y844676D01*
X-124292Y844789D01*
X-124266Y844901D01*
X-124237Y845013D01*
X-124204Y845123D01*
X-124167Y845232D01*
X-124126Y845340D01*
X-124081Y845446D01*
X-124033Y845551D01*
X-123982Y845653D01*
X-123926Y845754D01*
X-123868Y845854D01*
X-123806Y845951D01*
X-123741Y846045D01*
X-123672Y846138D01*
X-123600Y846228D01*
X-123526Y846316D01*
X-123448Y846401D01*
X-123367Y846483D01*
X-123284Y846562D01*
X-123198Y846639D01*
X-123109Y846712D01*
X-123018Y846783D01*
X-122924Y846850D01*
X-122829Y846914D01*
X-122731Y846975D01*
X-122631Y847032D01*
X-122529Y847085D01*
X-122425Y847136D01*
X-122320Y847182D01*
X-122213Y847225D01*
X-122105Y847264D01*
X-122105Y847263D02*
X-121816Y847400D01*
X-121524Y847530D01*
X-121228Y847653D01*
X-120930Y847768D01*
X-120629Y847877D01*
X-120326Y847978D01*
X-120020Y848072D01*
X-119713Y848159D01*
X-119403Y848238D01*
X-119091Y848310D01*
X-118778Y848374D01*
X-118463Y848431D01*
X-118147Y848481D01*
X-117830Y848523D01*
X-117512Y848557D01*
X-117194Y848584D01*
X-116874Y848603D01*
X-116555Y848614D01*
X-116235Y848618D01*
X-116235Y839588D02*
X-115915Y839592D01*
X-115596Y839603D01*
X-115276Y839622D01*
X-114958Y839649D01*
X-114640Y839683D01*
X-114323Y839725D01*
X-114007Y839775D01*
X-113692Y839832D01*
X-113379Y839896D01*
X-113067Y839968D01*
X-112757Y840047D01*
X-112450Y840134D01*
X-112144Y840228D01*
X-111841Y840329D01*
X-111540Y840438D01*
X-111242Y840553D01*
X-110946Y840676D01*
X-110654Y840806D01*
X-110365Y840943D01*
X-110365Y840942D02*
X-110257Y840981D01*
X-110150Y841024D01*
X-110045Y841070D01*
X-109941Y841121D01*
X-109839Y841174D01*
X-109739Y841231D01*
X-109641Y841292D01*
X-109546Y841356D01*
X-109452Y841423D01*
X-109361Y841494D01*
X-109272Y841567D01*
X-109186Y841644D01*
X-109103Y841723D01*
X-109022Y841805D01*
X-108944Y841890D01*
X-108870Y841978D01*
X-108798Y842068D01*
X-108729Y842161D01*
X-108664Y842255D01*
X-108602Y842352D01*
X-108544Y842452D01*
X-108488Y842553D01*
X-108437Y842655D01*
X-108389Y842760D01*
X-108344Y842866D01*
X-108303Y842974D01*
X-108266Y843083D01*
X-108233Y843193D01*
X-108204Y843305D01*
X-108178Y843417D01*
X-108156Y843530D01*
X-108139Y843644D01*
X-108125Y843758D01*
X-108115Y843873D01*
X-108109Y843988D01*
X-108107Y844103D01*
X-110365Y847263D02*
X-110654Y847400D01*
X-110946Y847530D01*
X-111242Y847653D01*
X-111540Y847768D01*
X-111841Y847877D01*
X-112144Y847978D01*
X-112450Y848072D01*
X-112757Y848159D01*
X-113067Y848238D01*
X-113379Y848310D01*
X-113692Y848374D01*
X-114007Y848431D01*
X-114323Y848481D01*
X-114640Y848523D01*
X-114958Y848557D01*
X-115276Y848584D01*
X-115596Y848603D01*
X-115915Y848614D01*
X-116235Y848618D01*
X-110365Y847264D02*
X-110257Y847225D01*
X-110150Y847182D01*
X-110045Y847136D01*
X-109941Y847085D01*
X-109839Y847032D01*
X-109739Y846975D01*
X-109641Y846914D01*
X-109546Y846850D01*
X-109452Y846783D01*
X-109361Y846712D01*
X-109272Y846639D01*
X-109186Y846562D01*
X-109103Y846483D01*
X-109022Y846401D01*
X-108944Y846316D01*
X-108870Y846228D01*
X-108798Y846138D01*
X-108729Y846045D01*
X-108664Y845951D01*
X-108602Y845854D01*
X-108544Y845754D01*
X-108488Y845653D01*
X-108437Y845550D01*
X-108389Y845446D01*
X-108344Y845340D01*
X-108303Y845232D01*
X-108266Y845123D01*
X-108233Y845013D01*
X-108204Y844901D01*
X-108178Y844789D01*
X-108156Y844676D01*
X-108139Y844562D01*
X-108125Y844448D01*
X-108115Y844333D01*
X-108109Y844218D01*
X-108107Y844103D01*
X-111719Y840491D02*
X-120751Y847715D01*
X51562Y664718D02*
X51562Y648462D01*
X60593Y648462D02*
X51562Y664718D01*
X60593Y664718D02*
X60593Y648462D01*
X68096Y651171D02*
X68096Y659299D01*
X68097Y651171D02*
X68099Y651070D01*
X68105Y650969D01*
X68114Y650868D01*
X68127Y650767D01*
X68144Y650667D01*
X68165Y650568D01*
X68189Y650470D01*
X68217Y650373D01*
X68249Y650276D01*
X68284Y650181D01*
X68323Y650088D01*
X68365Y649996D01*
X68411Y649905D01*
X68460Y649817D01*
X68512Y649730D01*
X68568Y649645D01*
X68626Y649562D01*
X68688Y649482D01*
X68753Y649404D01*
X68820Y649328D01*
X68890Y649255D01*
X68963Y649185D01*
X69039Y649118D01*
X69117Y649053D01*
X69197Y648991D01*
X69280Y648933D01*
X69365Y648877D01*
X69452Y648825D01*
X69540Y648776D01*
X69631Y648730D01*
X69723Y648688D01*
X69816Y648649D01*
X69911Y648614D01*
X70008Y648582D01*
X70105Y648554D01*
X70203Y648530D01*
X70302Y648509D01*
X70402Y648492D01*
X70503Y648479D01*
X70604Y648470D01*
X70705Y648464D01*
X70806Y648462D01*
X75321Y648462D01*
X75321Y659299D01*
X82770Y659299D02*
X82770Y648462D01*
X82770Y659299D02*
X88189Y659299D01*
X88189Y657493D01*
X94461Y654784D02*
X98976Y652978D01*
X94461Y654784D02*
X94373Y654821D01*
X94287Y654862D01*
X94202Y654906D01*
X94119Y654954D01*
X94039Y655005D01*
X93960Y655059D01*
X93884Y655117D01*
X93810Y655177D01*
X93738Y655241D01*
X93670Y655307D01*
X93604Y655377D01*
X93541Y655448D01*
X93480Y655523D01*
X93423Y655599D01*
X93370Y655678D01*
X93319Y655759D01*
X93272Y655842D01*
X93228Y655927D01*
X93188Y656014D01*
X93151Y656102D01*
X93118Y656192D01*
X93088Y656283D01*
X93063Y656375D01*
X93041Y656468D01*
X93023Y656562D01*
X93008Y656656D01*
X92998Y656751D01*
X92992Y656847D01*
X92989Y656942D01*
X92990Y657038D01*
X92996Y657133D01*
X93005Y657229D01*
X93018Y657323D01*
X93034Y657417D01*
X93055Y657511D01*
X93080Y657603D01*
X93108Y657694D01*
X93140Y657784D01*
X93175Y657873D01*
X93214Y657960D01*
X93257Y658046D01*
X93303Y658130D01*
X93353Y658211D01*
X93405Y658291D01*
X93461Y658369D01*
X93521Y658444D01*
X93583Y658516D01*
X93648Y658586D01*
X93716Y658654D01*
X93786Y658718D01*
X93859Y658780D01*
X93935Y658838D01*
X94013Y658894D01*
X94093Y658946D01*
X94175Y658995D01*
X94259Y659040D01*
X94345Y659082D01*
X94432Y659121D01*
X94521Y659156D01*
X94612Y659187D01*
X94703Y659214D01*
X94796Y659238D01*
X94889Y659258D01*
X94983Y659274D01*
X95078Y659286D01*
X95173Y659295D01*
X95269Y659299D01*
X95364Y659300D01*
X95611Y659293D01*
X95857Y659281D01*
X96103Y659263D01*
X96349Y659238D01*
X96593Y659208D01*
X96837Y659172D01*
X97080Y659131D01*
X97322Y659083D01*
X97563Y659029D01*
X97802Y658970D01*
X98040Y658905D01*
X98276Y658834D01*
X98511Y658758D01*
X98744Y658676D01*
X98974Y658588D01*
X99202Y658495D01*
X99429Y658397D01*
X98977Y652977D02*
X99065Y652940D01*
X99151Y652899D01*
X99236Y652855D01*
X99319Y652807D01*
X99399Y652756D01*
X99478Y652702D01*
X99554Y652644D01*
X99628Y652584D01*
X99700Y652520D01*
X99768Y652454D01*
X99834Y652384D01*
X99897Y652313D01*
X99958Y652238D01*
X100015Y652162D01*
X100068Y652083D01*
X100119Y652002D01*
X100166Y651919D01*
X100210Y651834D01*
X100250Y651747D01*
X100287Y651659D01*
X100320Y651569D01*
X100350Y651478D01*
X100375Y651386D01*
X100397Y651293D01*
X100415Y651199D01*
X100430Y651105D01*
X100440Y651010D01*
X100446Y650914D01*
X100449Y650819D01*
X100448Y650723D01*
X100442Y650628D01*
X100433Y650532D01*
X100420Y650438D01*
X100404Y650344D01*
X100383Y650250D01*
X100358Y650158D01*
X100330Y650067D01*
X100298Y649977D01*
X100263Y649888D01*
X100224Y649801D01*
X100181Y649715D01*
X100135Y649631D01*
X100085Y649550D01*
X100033Y649470D01*
X99977Y649392D01*
X99917Y649317D01*
X99855Y649245D01*
X99790Y649175D01*
X99722Y649107D01*
X99652Y649043D01*
X99579Y648981D01*
X99503Y648923D01*
X99425Y648867D01*
X99345Y648815D01*
X99263Y648766D01*
X99179Y648721D01*
X99093Y648679D01*
X99006Y648640D01*
X98917Y648605D01*
X98826Y648574D01*
X98735Y648547D01*
X98642Y648523D01*
X98549Y648503D01*
X98455Y648487D01*
X98360Y648475D01*
X98265Y648466D01*
X98169Y648462D01*
X98074Y648461D01*
X98073Y648462D02*
X97711Y648471D01*
X97349Y648489D01*
X96988Y648516D01*
X96628Y648551D01*
X96268Y648594D01*
X95909Y648646D01*
X95552Y648707D01*
X95197Y648776D01*
X94843Y648853D01*
X94491Y648939D01*
X94141Y649033D01*
X93793Y649136D01*
X93448Y649246D01*
X93106Y649365D01*
X109363Y648462D02*
X113878Y648462D01*
X109363Y648462D02*
X109262Y648464D01*
X109161Y648470D01*
X109060Y648479D01*
X108959Y648492D01*
X108859Y648509D01*
X108760Y648530D01*
X108662Y648554D01*
X108565Y648582D01*
X108468Y648614D01*
X108373Y648649D01*
X108280Y648688D01*
X108188Y648730D01*
X108097Y648776D01*
X108009Y648825D01*
X107922Y648877D01*
X107837Y648933D01*
X107754Y648991D01*
X107674Y649053D01*
X107596Y649118D01*
X107520Y649185D01*
X107447Y649255D01*
X107377Y649328D01*
X107310Y649404D01*
X107245Y649482D01*
X107183Y649562D01*
X107125Y649645D01*
X107069Y649730D01*
X107017Y649817D01*
X106968Y649905D01*
X106922Y649996D01*
X106880Y650088D01*
X106841Y650181D01*
X106806Y650276D01*
X106774Y650373D01*
X106746Y650470D01*
X106722Y650568D01*
X106701Y650667D01*
X106684Y650767D01*
X106671Y650868D01*
X106662Y650969D01*
X106656Y651070D01*
X106654Y651171D01*
X106653Y651171D02*
X106653Y655687D01*
X106654Y655687D02*
X106656Y655806D01*
X106662Y655926D01*
X106672Y656045D01*
X106686Y656163D01*
X106703Y656282D01*
X106725Y656399D01*
X106750Y656516D01*
X106780Y656631D01*
X106813Y656746D01*
X106850Y656860D01*
X106890Y656972D01*
X106935Y657083D01*
X106983Y657192D01*
X107034Y657300D01*
X107089Y657406D01*
X107148Y657510D01*
X107210Y657612D01*
X107275Y657712D01*
X107344Y657810D01*
X107416Y657906D01*
X107491Y657999D01*
X107568Y658089D01*
X107649Y658177D01*
X107733Y658262D01*
X107820Y658344D01*
X107909Y658424D01*
X108001Y658500D01*
X108095Y658574D01*
X108192Y658644D01*
X108290Y658711D01*
X108391Y658775D01*
X108495Y658835D01*
X108600Y658892D01*
X108707Y658945D01*
X108815Y658995D01*
X108925Y659041D01*
X109037Y659083D01*
X109150Y659122D01*
X109264Y659157D01*
X109379Y659188D01*
X109496Y659216D01*
X109613Y659239D01*
X109730Y659259D01*
X109849Y659275D01*
X109968Y659287D01*
X110087Y659295D01*
X110206Y659299D01*
X110326Y659299D01*
X110445Y659295D01*
X110564Y659287D01*
X110683Y659275D01*
X110802Y659259D01*
X110919Y659239D01*
X111036Y659216D01*
X111153Y659188D01*
X111268Y659157D01*
X111382Y659122D01*
X111495Y659083D01*
X111607Y659041D01*
X111717Y658995D01*
X111825Y658945D01*
X111932Y658892D01*
X112037Y658835D01*
X112141Y658775D01*
X112242Y658711D01*
X112340Y658644D01*
X112437Y658574D01*
X112531Y658500D01*
X112623Y658424D01*
X112712Y658344D01*
X112799Y658262D01*
X112883Y658177D01*
X112964Y658089D01*
X113041Y657999D01*
X113116Y657906D01*
X113188Y657810D01*
X113257Y657712D01*
X113322Y657612D01*
X113384Y657510D01*
X113443Y657406D01*
X113498Y657300D01*
X113549Y657192D01*
X113597Y657083D01*
X113642Y656972D01*
X113682Y656860D01*
X113719Y656746D01*
X113752Y656631D01*
X113782Y656516D01*
X113807Y656399D01*
X113829Y656282D01*
X113846Y656163D01*
X113860Y656045D01*
X113870Y655926D01*
X113876Y655806D01*
X113878Y655687D01*
X113878Y653881D01*
X106653Y653881D01*
X121071Y657493D02*
X125587Y657493D01*
X125587Y657494D02*
X125720Y657492D01*
X125852Y657486D01*
X125984Y657476D01*
X126116Y657463D01*
X126248Y657445D01*
X126378Y657424D01*
X126509Y657399D01*
X126638Y657370D01*
X126766Y657337D01*
X126894Y657301D01*
X127020Y657261D01*
X127145Y657217D01*
X127269Y657169D01*
X127391Y657118D01*
X127512Y657063D01*
X127631Y657005D01*
X127749Y656943D01*
X127864Y656878D01*
X127978Y656809D01*
X128089Y656738D01*
X128198Y656662D01*
X128305Y656584D01*
X128410Y656503D01*
X128512Y656418D01*
X128612Y656331D01*
X128709Y656241D01*
X128804Y656148D01*
X128895Y656052D01*
X128984Y655954D01*
X129070Y655853D01*
X129153Y655749D01*
X129233Y655643D01*
X129309Y655535D01*
X129383Y655425D01*
X129453Y655312D01*
X129520Y655198D01*
X129583Y655081D01*
X129643Y654963D01*
X129700Y654843D01*
X129753Y654721D01*
X129802Y654598D01*
X129848Y654474D01*
X129890Y654348D01*
X129928Y654221D01*
X129963Y654093D01*
X129994Y653964D01*
X130021Y653835D01*
X130044Y653704D01*
X130064Y653573D01*
X130079Y653441D01*
X130091Y653309D01*
X130099Y653177D01*
X130103Y653044D01*
X130103Y652912D01*
X130099Y652779D01*
X130091Y652647D01*
X130079Y652515D01*
X130064Y652383D01*
X130044Y652252D01*
X130021Y652121D01*
X129994Y651992D01*
X129963Y651863D01*
X129928Y651735D01*
X129890Y651608D01*
X129848Y651482D01*
X129802Y651358D01*
X129753Y651235D01*
X129700Y651113D01*
X129643Y650993D01*
X129583Y650875D01*
X129520Y650758D01*
X129453Y650644D01*
X129383Y650531D01*
X129309Y650421D01*
X129233Y650313D01*
X129153Y650207D01*
X129070Y650103D01*
X128984Y650002D01*
X128895Y649904D01*
X128804Y649808D01*
X128709Y649715D01*
X128612Y649625D01*
X128512Y649538D01*
X128410Y649453D01*
X128305Y649372D01*
X128198Y649294D01*
X128089Y649218D01*
X127978Y649147D01*
X127864Y649078D01*
X127749Y649013D01*
X127631Y648951D01*
X127512Y648893D01*
X127391Y648838D01*
X127269Y648787D01*
X127145Y648739D01*
X127020Y648695D01*
X126894Y648655D01*
X126766Y648619D01*
X126638Y648586D01*
X126509Y648557D01*
X126378Y648532D01*
X126248Y648511D01*
X126116Y648493D01*
X125984Y648480D01*
X125852Y648470D01*
X125720Y648464D01*
X125587Y648462D01*
X121071Y648462D01*
X121071Y664718D01*
X125587Y664718D01*
X125706Y664716D01*
X125826Y664710D01*
X125945Y664700D01*
X126063Y664686D01*
X126182Y664669D01*
X126299Y664647D01*
X126416Y664622D01*
X126531Y664592D01*
X126646Y664559D01*
X126760Y664522D01*
X126872Y664482D01*
X126983Y664437D01*
X127092Y664389D01*
X127200Y664338D01*
X127306Y664283D01*
X127410Y664224D01*
X127512Y664162D01*
X127612Y664097D01*
X127710Y664028D01*
X127806Y663956D01*
X127899Y663881D01*
X127989Y663804D01*
X128077Y663723D01*
X128162Y663639D01*
X128244Y663552D01*
X128324Y663463D01*
X128400Y663371D01*
X128474Y663277D01*
X128544Y663180D01*
X128611Y663082D01*
X128675Y662981D01*
X128735Y662877D01*
X128792Y662772D01*
X128845Y662665D01*
X128895Y662557D01*
X128941Y662447D01*
X128983Y662335D01*
X129022Y662222D01*
X129057Y662108D01*
X129088Y661993D01*
X129116Y661876D01*
X129139Y661759D01*
X129159Y661642D01*
X129175Y661523D01*
X129187Y661404D01*
X129195Y661285D01*
X129199Y661166D01*
X129199Y661046D01*
X129195Y660927D01*
X129187Y660808D01*
X129175Y660689D01*
X129159Y660570D01*
X129139Y660453D01*
X129116Y660336D01*
X129088Y660219D01*
X129057Y660104D01*
X129022Y659990D01*
X128983Y659877D01*
X128941Y659765D01*
X128895Y659655D01*
X128845Y659547D01*
X128792Y659440D01*
X128735Y659335D01*
X128675Y659231D01*
X128611Y659130D01*
X128544Y659032D01*
X128474Y658935D01*
X128400Y658841D01*
X128324Y658749D01*
X128244Y658660D01*
X128162Y658573D01*
X128077Y658489D01*
X127989Y658408D01*
X127899Y658331D01*
X127806Y658256D01*
X127710Y658184D01*
X127612Y658115D01*
X127512Y658050D01*
X127410Y657988D01*
X127306Y657929D01*
X127200Y657874D01*
X127092Y657823D01*
X126983Y657775D01*
X126872Y657730D01*
X126760Y657690D01*
X126646Y657653D01*
X126531Y657620D01*
X126416Y657590D01*
X126299Y657565D01*
X126182Y657543D01*
X126063Y657526D01*
X125945Y657512D01*
X125826Y657502D01*
X125706Y657496D01*
X125587Y657494D01*
X135832Y655687D02*
X135832Y652074D01*
X135832Y655687D02*
X135834Y655806D01*
X135840Y655926D01*
X135850Y656045D01*
X135864Y656163D01*
X135881Y656282D01*
X135903Y656399D01*
X135928Y656516D01*
X135958Y656631D01*
X135991Y656746D01*
X136028Y656860D01*
X136068Y656972D01*
X136113Y657083D01*
X136161Y657192D01*
X136212Y657300D01*
X136267Y657406D01*
X136326Y657510D01*
X136388Y657612D01*
X136453Y657712D01*
X136522Y657810D01*
X136594Y657906D01*
X136669Y657999D01*
X136746Y658089D01*
X136827Y658177D01*
X136911Y658262D01*
X136998Y658344D01*
X137087Y658424D01*
X137179Y658500D01*
X137273Y658574D01*
X137370Y658644D01*
X137468Y658711D01*
X137569Y658775D01*
X137673Y658835D01*
X137778Y658892D01*
X137885Y658945D01*
X137993Y658995D01*
X138103Y659041D01*
X138215Y659083D01*
X138328Y659122D01*
X138442Y659157D01*
X138557Y659188D01*
X138674Y659216D01*
X138791Y659239D01*
X138908Y659259D01*
X139027Y659275D01*
X139146Y659287D01*
X139265Y659295D01*
X139384Y659299D01*
X139504Y659299D01*
X139623Y659295D01*
X139742Y659287D01*
X139861Y659275D01*
X139980Y659259D01*
X140097Y659239D01*
X140214Y659216D01*
X140331Y659188D01*
X140446Y659157D01*
X140560Y659122D01*
X140673Y659083D01*
X140785Y659041D01*
X140895Y658995D01*
X141003Y658945D01*
X141110Y658892D01*
X141215Y658835D01*
X141319Y658775D01*
X141420Y658711D01*
X141518Y658644D01*
X141615Y658574D01*
X141709Y658500D01*
X141801Y658424D01*
X141890Y658344D01*
X141977Y658262D01*
X142061Y658177D01*
X142142Y658089D01*
X142219Y657999D01*
X142294Y657906D01*
X142366Y657810D01*
X142435Y657712D01*
X142500Y657612D01*
X142562Y657510D01*
X142621Y657406D01*
X142676Y657300D01*
X142727Y657192D01*
X142775Y657083D01*
X142820Y656972D01*
X142860Y656860D01*
X142897Y656746D01*
X142930Y656631D01*
X142960Y656516D01*
X142985Y656399D01*
X143007Y656282D01*
X143024Y656163D01*
X143038Y656045D01*
X143048Y655926D01*
X143054Y655806D01*
X143056Y655687D01*
X143057Y655687D02*
X143057Y652074D01*
X143056Y652074D02*
X143054Y651955D01*
X143048Y651835D01*
X143038Y651716D01*
X143024Y651598D01*
X143007Y651479D01*
X142985Y651362D01*
X142960Y651245D01*
X142930Y651130D01*
X142897Y651015D01*
X142860Y650901D01*
X142820Y650789D01*
X142775Y650678D01*
X142727Y650569D01*
X142676Y650461D01*
X142621Y650355D01*
X142562Y650251D01*
X142500Y650149D01*
X142435Y650049D01*
X142366Y649951D01*
X142294Y649855D01*
X142219Y649762D01*
X142142Y649672D01*
X142061Y649584D01*
X141977Y649499D01*
X141890Y649417D01*
X141801Y649337D01*
X141709Y649261D01*
X141615Y649187D01*
X141518Y649117D01*
X141420Y649050D01*
X141319Y648986D01*
X141215Y648926D01*
X141110Y648869D01*
X141003Y648816D01*
X140895Y648766D01*
X140785Y648720D01*
X140673Y648678D01*
X140560Y648639D01*
X140446Y648604D01*
X140331Y648573D01*
X140214Y648545D01*
X140097Y648522D01*
X139980Y648502D01*
X139861Y648486D01*
X139742Y648474D01*
X139623Y648466D01*
X139504Y648462D01*
X139384Y648462D01*
X139265Y648466D01*
X139146Y648474D01*
X139027Y648486D01*
X138908Y648502D01*
X138791Y648522D01*
X138674Y648545D01*
X138557Y648573D01*
X138442Y648604D01*
X138328Y648639D01*
X138215Y648678D01*
X138103Y648720D01*
X137993Y648766D01*
X137885Y648816D01*
X137778Y648869D01*
X137673Y648926D01*
X137569Y648986D01*
X137468Y649050D01*
X137370Y649117D01*
X137273Y649187D01*
X137179Y649261D01*
X137087Y649337D01*
X136998Y649417D01*
X136911Y649499D01*
X136827Y649584D01*
X136746Y649672D01*
X136669Y649762D01*
X136594Y649855D01*
X136522Y649951D01*
X136453Y650049D01*
X136388Y650149D01*
X136326Y650251D01*
X136267Y650355D01*
X136212Y650461D01*
X136161Y650569D01*
X136113Y650678D01*
X136068Y650789D01*
X136028Y650901D01*
X135991Y651015D01*
X135958Y651130D01*
X135928Y651245D01*
X135903Y651362D01*
X135881Y651479D01*
X135864Y651598D01*
X135850Y651716D01*
X135840Y651835D01*
X135834Y651955D01*
X135832Y652074D01*
X148081Y659299D02*
X153500Y659299D01*
X149888Y664718D02*
X149888Y651171D01*
X149890Y651070D01*
X149896Y650969D01*
X149905Y650868D01*
X149918Y650767D01*
X149935Y650667D01*
X149956Y650568D01*
X149980Y650470D01*
X150008Y650373D01*
X150040Y650276D01*
X150075Y650181D01*
X150114Y650088D01*
X150156Y649996D01*
X150202Y649905D01*
X150251Y649817D01*
X150303Y649730D01*
X150359Y649645D01*
X150417Y649562D01*
X150479Y649482D01*
X150544Y649404D01*
X150611Y649328D01*
X150681Y649255D01*
X150754Y649185D01*
X150830Y649118D01*
X150908Y649053D01*
X150988Y648991D01*
X151071Y648933D01*
X151156Y648877D01*
X151243Y648825D01*
X151331Y648776D01*
X151422Y648730D01*
X151514Y648688D01*
X151607Y648649D01*
X151702Y648614D01*
X151799Y648582D01*
X151896Y648554D01*
X151994Y648530D01*
X152093Y648509D01*
X152193Y648492D01*
X152294Y648479D01*
X152395Y648470D01*
X152496Y648464D01*
X152597Y648462D01*
X153500Y648462D01*
X172270Y648462D02*
X166851Y664718D01*
X177688Y664718D02*
X172270Y648462D01*
X183385Y661106D02*
X187901Y664718D01*
X187901Y648462D01*
X192416Y648462D02*
X183385Y648462D01*
X198391Y648462D02*
X198391Y649365D01*
X199294Y649365D01*
X199294Y648462D01*
X198391Y648462D01*
X205269Y661106D02*
X209785Y664718D01*
X209785Y648462D01*
X214300Y648462D02*
X205269Y648462D01*
D12*
X279400Y652780D02*
X279400Y668020D01*
X304800Y668020D02*
X304800Y652780D01*
X330200Y652780D02*
X330200Y668020D01*
X355600Y668020D02*
X355600Y652780D01*
X381000Y652780D02*
X381000Y668020D01*
X406400Y668020D02*
X406400Y652780D01*
X431800Y652780D02*
X431800Y668020D01*
X457200Y668020D02*
X457200Y652780D01*
X279400Y894080D02*
X279400Y909320D01*
X304800Y909320D02*
X304800Y894080D01*
X330200Y894080D02*
X330200Y909320D01*
X355600Y909320D02*
X355600Y894080D01*
X381000Y894080D02*
X381000Y909320D01*
X406400Y909320D02*
X406400Y894080D01*
X431800Y894080D02*
X431800Y909320D01*
X457200Y909320D02*
X457200Y894080D01*
D13*
X139700Y698500D03*
X215900Y698500D03*
X88900Y914400D03*
X165100Y914400D03*
D14*
X25400Y977900D03*
D15*
X25400Y952500D03*
X50800Y977900D03*
X50800Y952500D03*
X76200Y977900D03*
X76200Y952500D03*
X101600Y977900D03*
X101600Y952500D03*
X127000Y977900D03*
X127000Y952500D03*
X152400Y977900D03*
X152400Y952500D03*
X177800Y977900D03*
X177800Y952500D03*
X203200Y977900D03*
X203200Y952500D03*
X228600Y977900D03*
X228600Y952500D03*
X254000Y977900D03*
X254000Y952500D03*
X279400Y977900D03*
X279400Y952500D03*
X304800Y977900D03*
X304800Y952500D03*
X330200Y977900D03*
X330200Y952500D03*
X355600Y977900D03*
X355600Y952500D03*
X381000Y977900D03*
X381000Y952500D03*
X406400Y977900D03*
X406400Y952500D03*
X431800Y977900D03*
X431800Y952500D03*
X457200Y977900D03*
X457200Y952500D03*
X482600Y977900D03*
X482600Y952500D03*
X508000Y977900D03*
X508000Y952500D03*
D16*
X25400Y800100D03*
D17*
X50800Y800100D03*
X76200Y800100D03*
X101600Y800100D03*
X127000Y800100D03*
X152400Y800100D03*
X177800Y800100D03*
X203200Y800100D03*
X177800Y876300D03*
X152400Y876300D03*
X127000Y876300D03*
X101600Y876300D03*
X76200Y876300D03*
X50800Y876300D03*
X25400Y876300D03*
X203200Y876300D03*
D13*
X25400Y762000D03*
X50800Y762000D03*
X76200Y762000D03*
X101600Y762000D03*
X152400Y762000D03*
X177800Y762000D03*
X203200Y762000D03*
X38100Y698500D03*
X63500Y698500D03*
X88900Y698500D03*
D11*
X50800Y876300D02*
X25908Y876300D01*
X25908Y952500D01*
X25400Y952500D01*
X25400Y876300D02*
X25908Y876300D01*
X51816Y888492D02*
X51816Y952500D01*
X51816Y888492D02*
X65532Y874776D01*
X65532Y772668D01*
X76200Y762000D01*
X51816Y952500D02*
X50800Y952500D01*
X76200Y952500D02*
X76200Y944880D01*
X111252Y909828D01*
X111252Y771144D01*
X102108Y762000D01*
X101600Y762000D01*
X152400Y890016D02*
X152400Y952500D01*
X152400Y890016D02*
X141732Y879348D01*
X141732Y850392D01*
X193548Y798576D01*
X193548Y771144D01*
X202692Y762000D01*
X203200Y762000D01*
X25908Y778764D02*
X25908Y800100D01*
X25908Y778764D02*
X38100Y766572D01*
X38100Y749808D01*
X88392Y699516D01*
X25908Y800100D02*
X25400Y800100D01*
X88392Y699516D02*
X88900Y698500D01*
X76200Y800100D02*
X76200Y862584D01*
X88392Y874776D01*
X88392Y914400D01*
X88900Y914400D01*
X152400Y749808D02*
X152400Y745236D01*
X152400Y749808D02*
X152400Y762000D01*
X152400Y745236D02*
X92964Y685800D01*
X50292Y685800D01*
X38100Y697992D01*
X38100Y698500D01*
X214884Y876300D02*
X254508Y876300D01*
X214884Y876300D02*
X203200Y876300D01*
X254508Y876300D02*
X278892Y900684D01*
X279400Y901700D01*
X88392Y976884D02*
X76200Y976884D01*
X88392Y976884D02*
X102108Y963168D01*
X115824Y963168D01*
X126492Y952500D01*
X76200Y976884D02*
X76200Y977900D01*
X126492Y952500D02*
X127000Y952500D01*
X152400Y749808D02*
X208788Y749808D01*
X214884Y755904D01*
X214884Y876300D01*
X164592Y876300D02*
X152400Y876300D01*
X164592Y876300D02*
X230124Y941832D01*
X242316Y941832D01*
X252984Y952500D01*
X254000Y952500D01*
X188976Y876300D02*
X177800Y876300D01*
X188976Y876300D02*
X254508Y941832D01*
X257556Y941832D01*
X269748Y954024D01*
X269748Y957072D01*
X280416Y967740D01*
X295656Y967740D01*
X304800Y976884D01*
X304800Y977900D01*
X177800Y762000D02*
X169164Y762000D01*
X156972Y774192D01*
X131064Y774192D01*
X106680Y749808D01*
X64008Y749808D01*
X51816Y762000D01*
X50800Y762000D01*
M02*
