G04 EAGLE Gerber RS-274X export*
G75*
%MOMM*%
%FSLAX34Y34*%
%LPD*%
%INBottom Copper*%
%IPPOS*%
%AMOC8*
5,1,8,0,0,1.08239X$1,22.5*%
G01*
%ADD10C,1.524000*%
%ADD11C,1.879600*%
%ADD12C,1.422400*%
%ADD13P,1.539592X8X22.500000*%
%ADD14R,1.408000X1.408000*%
%ADD15C,1.408000*%
%ADD16C,0.152400*%


D10*
X279400Y668020D02*
X279400Y652780D01*
X304800Y652780D02*
X304800Y668020D01*
X330200Y668020D02*
X330200Y652780D01*
X355600Y652780D02*
X355600Y668020D01*
X381000Y668020D02*
X381000Y652780D01*
X406400Y652780D02*
X406400Y668020D01*
X431800Y668020D02*
X431800Y652780D01*
X457200Y652780D02*
X457200Y668020D01*
X279400Y894080D02*
X279400Y909320D01*
X304800Y909320D02*
X304800Y894080D01*
X330200Y894080D02*
X330200Y909320D01*
X355600Y909320D02*
X355600Y894080D01*
X381000Y894080D02*
X381000Y909320D01*
X406400Y909320D02*
X406400Y894080D01*
X431800Y894080D02*
X431800Y909320D01*
X457200Y909320D02*
X457200Y894080D01*
D11*
X139700Y698500D03*
X215900Y698500D03*
X88900Y914400D03*
X165100Y914400D03*
D12*
X25400Y977900D03*
D13*
X25400Y952500D03*
X50800Y977900D03*
X50800Y952500D03*
X76200Y977900D03*
X76200Y952500D03*
X101600Y977900D03*
X101600Y952500D03*
X127000Y977900D03*
X127000Y952500D03*
X152400Y977900D03*
X152400Y952500D03*
X177800Y977900D03*
X177800Y952500D03*
X203200Y977900D03*
X203200Y952500D03*
X228600Y977900D03*
X228600Y952500D03*
X254000Y977900D03*
X254000Y952500D03*
X279400Y977900D03*
X279400Y952500D03*
X304800Y977900D03*
X304800Y952500D03*
X330200Y977900D03*
X330200Y952500D03*
X355600Y977900D03*
X355600Y952500D03*
X381000Y977900D03*
X381000Y952500D03*
X406400Y977900D03*
X406400Y952500D03*
X431800Y977900D03*
X431800Y952500D03*
X457200Y977900D03*
X457200Y952500D03*
X482600Y977900D03*
X482600Y952500D03*
X508000Y977900D03*
X508000Y952500D03*
D14*
X25400Y800100D03*
D15*
X50800Y800100D03*
X76200Y800100D03*
X101600Y800100D03*
X127000Y800100D03*
X152400Y800100D03*
X177800Y800100D03*
X203200Y800100D03*
X177800Y876300D03*
X152400Y876300D03*
X127000Y876300D03*
X101600Y876300D03*
X76200Y876300D03*
X50800Y876300D03*
X25400Y876300D03*
X203200Y876300D03*
D11*
X25400Y762000D03*
X50800Y762000D03*
X76200Y762000D03*
X101600Y762000D03*
X152400Y762000D03*
X177800Y762000D03*
X203200Y762000D03*
X38100Y698500D03*
X63500Y698500D03*
X88900Y698500D03*
D16*
X73152Y699516D02*
X64008Y699516D01*
X73152Y699516D02*
X83820Y710184D01*
X128016Y710184D01*
X139700Y698500D01*
X64008Y699516D02*
X63500Y698500D01*
X300228Y900684D02*
X304800Y900684D01*
X300228Y900684D02*
X262128Y862584D01*
X65532Y862584D01*
X64008Y864108D02*
X51816Y876300D01*
X64008Y864108D02*
X65532Y862584D01*
X304800Y900684D02*
X304800Y901700D01*
X51816Y876300D02*
X50800Y876300D01*
X83820Y737616D02*
X83820Y710184D01*
X83820Y737616D02*
X64008Y757428D01*
X64008Y864108D01*
X326136Y661416D02*
X329184Y661416D01*
X326136Y661416D02*
X304800Y682752D01*
X172212Y682752D01*
X105156Y749808D01*
X88392Y749808D01*
X76200Y762000D01*
X329184Y661416D02*
X330200Y660400D01*
X352044Y661416D02*
X355092Y661416D01*
X352044Y661416D02*
X327660Y685800D01*
X178308Y685800D01*
X102108Y762000D01*
X355092Y661416D02*
X355600Y660400D01*
X102108Y762000D02*
X101600Y762000D01*
X181356Y699516D02*
X214884Y699516D01*
X181356Y699516D02*
X80772Y800100D01*
X76200Y800100D01*
X214884Y699516D02*
X215900Y698500D01*
X38100Y698500D02*
X38100Y749808D01*
X25908Y762000D01*
X25400Y762000D01*
X76200Y876300D02*
X76200Y883920D01*
X126492Y934212D01*
X126492Y952500D01*
X127000Y952500D01*
X146304Y914400D02*
X165100Y914400D01*
X146304Y914400D02*
X126492Y934212D01*
X192024Y876300D02*
X203200Y876300D01*
X192024Y876300D02*
X181356Y865632D01*
X86868Y865632D01*
X76200Y876300D01*
X101600Y876300D02*
X112776Y876300D01*
X138684Y902208D01*
X217932Y902208D01*
X269748Y954024D01*
X269748Y957072D01*
X275844Y963168D01*
X294132Y963168D01*
X304800Y952500D01*
X138684Y876300D02*
X127000Y876300D01*
X138684Y876300D02*
X161544Y899160D01*
X225552Y899160D01*
X278892Y952500D01*
X279400Y952500D01*
X25908Y966216D02*
X25908Y976884D01*
X25908Y966216D02*
X41148Y950976D01*
X41148Y771144D01*
X50292Y762000D01*
X25908Y976884D02*
X25400Y977900D01*
X50292Y762000D02*
X50800Y762000D01*
M02*
